# xmcd
#
# Track frame offsets:
#	150
#	19247
#	38582
#	83764
#	98990
#	132769
#	143369
#	186875
#	213687
#	245064
#	269490
#
# Disc length: 4137 seconds
#
# Revision: 1
# Processed by: cddbd v1.5.2PL0 Copyright (c) Steve Scherf et al.
# Submitted via: audiograbber 1.83.01
#
DISCID=9810270b
DTITLE=Ilium - Sirens of the Styx: Re-Styxed
DYEAR=2017
DGENRE=Christian Rock
TTITLE0=Embrace the Myth
TTITLE1=The Celestial Sphere 
TTITLE2=Antigone
TTITLE3=Quoth the Raven
TTITLE4=Ode of the Trans-Dimensional Puppeteer 
TTITLE5=Half-Life
TTITLE6=Incipience: Beowulf Defeats Grendel 
TTITLE7=Solitary Empires 
TTITLE8=Semblance 
TTITLE9=Tombsouls  
TTITLE10=Sirens of the Styx 
EXTD=Epic Christian rock band from Australia with a whole re-recording of the f
EXTD=irst album.\n11 classic hyms to the almighty Jesus!\nPraise the lord!
EXTT0=
EXTT1=
EXTT2=
EXTT3=
EXTT4=
EXTT5=
EXTT6=
EXTT7=
EXTT8=
EXTT9=
EXTT10=
PLAYORDER=
